<?xml version="1.0" standalone="no"?><!DOCTYPE svg PUBLIC "-//W3C//DTD SVG 1.1//EN" "http://www.w3.org/Graphics/SVG/1.1/DTD/svg11.dtd"><svg width="100%" height="100%" viewBox="0 0 1600 375" version="1.1" xmlns="http://www.w3.org/2000/svg" xmlns:xlink="http://www.w3.org/1999/xlink" xml:space="preserve" style="fill-rule:evenodd;clip-rule:evenodd;stroke-linejoin:round;stroke-miterlimit:1.41421;"><g id="SKY DESATURATE"><rect x="0" y="0" width="1600" height="375" style="fill:#6d5282;"/><path d="M1600,62.531l0,312.469l-1600,0l0,-312.469c48.109,-22.877 97.349,-43.757 147.612,-62.531l1304.78,0c50.263,18.774 99.503,39.653 147.612,62.531l-0.004,0Z" style="fill:#7a5894;"/><path d="M1600,149.432l0,225.568l-1600,0l0,-225.568c133.312,-66.846 276.114,-117.517 425.825,-149.432l748.35,0c149.711,31.916 292.513,82.586 425.825,149.432Z" style="fill:#9f5f90;"/><path d="M1600,237.36l0,137.64l-1600,0l0,-137.64c238.779,-126.699 511.072,-198.488 800,-198.488c288.928,0 561.221,71.789 800,198.488Z" style="fill:#be798a;"/><path d="M1600,323.199l0,51.801l-1600,0l0,-51.801c236.555,-133.074 509.481,-208.999 800,-208.999c290.519,0 563.445,75.925 800,208.999Z" style="fill:#e2bc7b;"/><path d="M1557.52,375l-1515.04,0c224.643,-124.173 482.891,-194.871 757.521,-194.871c274.63,0 532.878,70.698 757.521,194.871l-0.002,0Z" style="fill:#ead581;"/><path d="M1457.06,375l-1314.12,0c198.98,-95.386 421.83,-148.822 657.061,-148.822c235.231,0 458.081,53.436 657.061,148.822l-0.002,0Z" style="fill:#eff0b0;"/><path d="M0,375l0,-33.548l771.449,-29.389l-771.449,-52.906l0,-103.197l768.881,150.678l-14.748,-9.336l-754.133,-221.576l0,-75.726l187.887,0l563.375,292.576l-465.166,-292.576l90.083,0l390.172,291.905l-338.029,-291.905l158.642,0l195.931,295.519l-156.619,-295.519l193.308,0l-10.68,281.634l60.74,-281.634l130.765,0l-175.988,281.389l238.599,-281.389l99.111,0l-320.731,280.703l368.448,-280.703l81.28,0l-433.114,282.326l531.389,-282.326l210.597,0l0,74.994l-758.955,221.816l-12.717,8.588l771.672,-168.448l0,137.845l-772.984,36.413l772.984,35.097l0,28.695l-519.94,0l-252.989,-60.272l-28.454,10.736l-1.705,1.151l-18.12,-9.88l-252.73,58.265l-526.062,0l0,0Z" style="fill:#ffe5a8;fill-opacity:0.364706;"/><g id="TREES &amp; LOGO"><path d="M252.043,342.171c-43.607,-14.514 -43.052,-109.172 -19.452,-151.524l-20.432,-3.116c4.612,14.301 6.608,50.995 -6.187,64.545c-17.863,-6.511 -35.561,-36.578 -30.759,-54.262l-22.523,11.262c19.392,9.948 39.409,40.394 36.31,50.924c-31.152,4.389 -64.467,-25.829 -71.044,-30.448l-17.361,21.5c89.723,-2.74 123.57,60.425 115.691,104.429l35.757,-13.31l0,0Z" style="fill:#133e59;"/><path d="M1375.59,360.649c42.173,-16.755 40.728,-80.906 20.11,-117.907l17.851,-2.722c-4.03,12.494 -5.773,44.553 5.405,56.39c15.606,-5.688 26.069,-36.957 21.873,-52.407l19.678,9.839c-16.943,8.692 -28.12,38.736 -25.412,47.935c27.217,3.835 55.012,-21.009 60.758,-25.045l15.168,18.784c-82.861,0.94 -107.631,37.336 -105.933,79.484l-29.498,-14.351Z" style="fill:#133e59;"/><path d="M1227,301c20.81,-12.142 15.978,-48.853 2.983,-72.174l11.251,-1.715c-2.54,7.874 -0.957,30.482 6.088,37.943c9.836,-3.585 13.473,-24.801 10.829,-34.539l15.828,8.459c-10.678,5.478 -18.868,22.685 -18.979,28.026c4.777,1.076 36.586,-6.274 35,-17l10.852,13.686c-30.436,-8.575 -60.046,26.984 -56.852,42.314l-17,-5l0,0Z" style="fill:#133e59;"/><path d="M384,297c7.045,-14.31 -14.646,-35.99 -30.86,-40.484l4.211,-5.807c2.408,4.625 10.986,14.063 17.452,14.205c2.746,-5.999 -0.367,-17.7 -5.906,-20.824l8.272,-2.819c-2.269,7.216 0.297,18.777 3.654,20.578c8.678,-6.625 9.409,-21.415 9.871,-24.166l9.542,0.953c-22.547,21.495 -15.195,45.252 -2.405,54.032l-13.831,4.332l0,0Z" style="fill:#133e59;"/><circle cx="103.323" cy="230.065" r="38.372" style="fill:#133e59;"/><circle cx="1508.15" cy="271.548" r="35.662" style="fill:#133e59;"/><circle cx="1307.16" cy="247.352" r="21.173" style="fill:#133e59;"/><path d="M383.19,224.606c-5.162,5.232 -5.107,13.67 0.125,18.832c5.231,5.163 13.669,5.107 18.832,-0.124c5.162,-5.232 5.106,-13.67 -0.125,-18.832c-5.231,-5.163 -13.67,-5.107 -18.832,0.124Z" style="fill:#133e59;"/><circle cx="228.928" cy="168.984" r="36.072" style="fill:#133e59;"/><circle cx="1399.68" cy="224.599" r="30.732" style="fill:#133e59;"/><circle cx="1227.23" cy="212.13" r="24.63" style="fill:#133e59;"/><path d="M338.075,240.984c-5.162,5.232 -5.106,13.67 0.125,18.832c5.231,5.163 13.669,5.107 18.832,-0.124c5.162,-5.232 5.106,-13.67 -0.125,-18.832c-5.231,-5.163 -13.669,-5.107 -18.832,0.124Z" style="fill:#133e59;"/><circle cx="145.437" cy="158.703" r="71.437" style="fill:#133e59;"/><circle cx="1470.91" cy="215.769" r="61.477" style="fill:#133e59;"/><circle cx="1277.38" cy="211.826" r="38.746" style="fill:#133e59;"/><path d="M349.117,210.574c-9.467,9.593 -9.364,25.067 0.229,34.534c9.592,9.466 25.066,9.364 34.533,-0.229c9.467,-9.593 9.365,-25.067 -0.228,-34.534c-9.593,-9.466 -25.067,-9.364 -34.534,0.229Z" style="fill:#133e59;"/><path id="Logo" d="M936.43,240.441l-0.609,-0.063l0.6,-5.756l-2.005,-0.209l0.06,-0.572l4.618,0.481l-0.059,0.572l-2.005,-0.209l-0.6,5.756ZM942.406,239.962l0.008,0.001l2.551,-5.029l0.93,0.097l-0.659,6.328l-0.609,-0.063l0.573,-5.497l-0.017,-0.002l-2.739,5.271l-0.321,-0.033l-1.593,-5.723l-0.017,-0.002l-0.573,5.497l-0.609,-0.063l0.66,-6.328l0.93,0.097l1.485,5.449ZM843.114,221.722c1.834,0 3.746,-0.807 5.101,-4.215c3.906,-9.775 10.442,-25.38 13.072,-31.389l4.464,-10.313c2.71,-6.368 4.144,-8.969 6.774,-9.507l1.355,-0.269c0.558,-0.538 0.479,-1.883 -0.159,-2.242c-2.232,0.18 -4.065,0.269 -6.058,0.269c-2.072,0 -4.463,-0.089 -7.014,-0.269c-0.637,0.269 -0.717,1.794 -0.159,2.242l2.471,0.449c1.435,0.269 1.913,0.896 1.913,1.524c0,0.987 -1.036,4.305 -2.79,8.969l-2.71,7.085c-1.435,3.677 -2.71,6.457 -2.949,6.636c-0.319,-0.179 -1.833,-4.932 -2.311,-6.367l-2.551,-8.251c-0.478,-1.525 -2.311,-7.354 -2.311,-8.43c0,-0.628 0.637,-0.897 1.753,-1.166l1.993,-0.449c0.558,-0.448 0.478,-1.973 -0.16,-2.242c-2.55,0.18 -4.782,0.269 -6.934,0.269c-2.63,0 -5.021,-0.089 -7.572,-0.269c-0.638,0.269 -0.717,1.794 -0.239,2.242l1.993,0.449c2.789,0.627 3.347,2.78 4.702,6.995l6.217,19.192c1.036,3.318 1.355,4.395 1.355,6.188c0,1.256 -0.558,3.139 -0.797,3.857c-0.717,2.152 -2.311,5.919 -4.623,9.954c-0.558,0.987 -1.355,1.615 -2.63,1.615l-1.514,0c-1.754,0 -3.189,1.166 -3.189,3.587c0,2.242 1.196,3.856 3.507,3.856l0,0ZM825.018,207.935l3.046,0l0,0.591l-3.71,0l0,-6.534l0.664,0l0,5.943ZM829.725,207.935l3.045,0l0,0.591l-3.71,0l0,-6.534l0.665,0l0,5.943ZM838.99,207.474c-0.111,0.166 -0.245,0.323 -0.402,0.47c-0.156,0.148 -0.338,0.277 -0.544,0.388c-0.206,0.111 -0.434,0.198 -0.683,0.263c-0.249,0.064 -0.521,0.097 -0.817,0.097c-0.492,0 -0.947,-0.086 -1.365,-0.259c-0.419,-0.172 -0.779,-0.41 -1.08,-0.715c-0.302,-0.304 -0.537,-0.666 -0.706,-1.084c-0.169,-0.419 -0.254,-0.877 -0.254,-1.375c0,-0.498 0.086,-0.957 0.259,-1.375c0.172,-0.418 0.41,-0.78 0.715,-1.084c0.304,-0.305 0.664,-0.543 1.079,-0.716c0.416,-0.172 0.866,-0.258 1.352,-0.258c0.24,0 0.476,0.025 0.706,0.074c0.231,0.049 0.448,0.118 0.651,0.207c0.203,0.09 0.387,0.197 0.554,0.323c0.166,0.127 0.304,0.27 0.415,0.43l-0.554,0.406c-0.068,-0.105 -0.158,-0.21 -0.272,-0.314c-0.114,-0.105 -0.248,-0.197 -0.401,-0.277c-0.154,-0.08 -0.322,-0.145 -0.503,-0.194c-0.182,-0.049 -0.377,-0.074 -0.586,-0.074c-0.425,0 -0.805,0.077 -1.14,0.231c-0.335,0.154 -0.62,0.361 -0.854,0.623c-0.233,0.261 -0.412,0.564 -0.535,0.909c-0.123,0.344 -0.184,0.707 -0.184,1.089c0,0.381 0.063,0.744 0.189,1.089c0.126,0.344 0.306,0.647 0.54,0.909c0.233,0.261 0.518,0.469 0.853,0.623c0.335,0.153 0.712,0.23 1.131,0.23c0.375,0 0.732,-0.077 1.07,-0.23c0.338,-0.154 0.621,-0.4 0.849,-0.739l0.517,0.333ZM834.156,145.605c-0.003,0.41 0,0.824 0,1.225l0,42.444c0,6.457 0.142,7.335 3.012,7.784l1.914,0.281c0.558,0.448 0.405,1.977 -0.153,2.246c-2.63,-0.18 -4.944,-0.281 -7.733,-0.281c-2.87,0 -5.266,0.101 -7.657,0.281c-0.558,-0.269 -0.711,-1.798 -0.153,-2.246l1.837,-0.281c2.949,-0.449 3.037,-1.327 3.037,-7.784l0,-40.555c0,-0.336 -0.024,-0.595 -0.025,-0.894c1.972,-0.675 3.949,-1.412 5.921,-2.22ZM710.668,189.262c0,6.457 -0.08,7.354 -3.029,7.803l-1.673,0.269c-0.558,0.448 -0.399,1.973 0.159,2.242c2.232,-0.18 4.623,-0.269 7.492,-0.269c2.79,0 5.101,0.089 7.493,0.269c0.557,-0.269 0.717,-1.794 0.159,-2.242l-1.674,-0.269c-2.869,-0.449 -3.029,-1.346 -3.029,-7.803l0,-16.143c0,-3.677 0.16,-7.981 0.319,-11.12c-0.08,-0.359 -0.398,-0.539 -0.797,-0.539c-1.833,1.346 -6.376,3.678 -8.21,4.395c-0.398,0.269 -0.398,1.256 -0.079,1.614l0.717,0.538c2.152,1.615 2.152,2.063 2.152,5.561l0,15.694ZM698.034,146.842c0,-3.946 0.159,-8.43 0.239,-11.121c-0.16,-0.358 -0.478,-0.538 -0.797,-0.538c-2.87,1.704 -6.616,3.05 -8.608,3.767c-0.399,0.269 -0.399,1.525 0,1.794l0.797,0.538c2.391,1.614 2.471,2.152 2.471,7.443l0,40.537c0,6.457 -0.08,7.354 -3.029,7.803l-1.833,0.269c-0.558,0.448 -0.399,1.973 0.159,2.242c2.391,-0.18 4.782,-0.269 7.652,-0.269c2.789,0 5.101,0.089 7.731,0.269c0.558,-0.269 0.717,-1.794 0.159,-2.242l-1.912,-0.269c-2.87,-0.449 -3.029,-1.346 -3.029,-7.803l0,-42.42l0,0ZM814.63,167.738c0.876,-0.358 1.434,-2.87 0.558,-3.766l-9.087,0c-1.355,0 -1.355,-0.09 -1.355,-2.512l0,-2.6c0,-4.484 0.319,-11.031 1.754,-15.157c1.195,-3.228 3.188,-4.932 5.659,-4.932c2.63,0 4.862,1.973 6.376,3.946c0.558,0.717 1.036,1.076 1.913,1.076c1.514,0 3.029,-1.435 3.029,-3.229c0,-3.228 -3.587,-5.381 -7.811,-5.381c-7.891,0 -12.355,6.278 -14.347,11.39c-1.913,5.022 -2.471,10.583 -2.471,15.784c0,0.897 -0.558,1.435 -1.196,1.794l-3.427,1.883c-0.319,0.538 -0.239,1.346 0.239,1.704l2.79,0c1.594,0 1.594,0.18 1.594,2.601l0,18.923c0,6.457 -0.08,7.354 -3.029,7.803l-1.833,0.269c-0.558,0.448 -0.399,1.973 0.159,2.242c2.392,-0.18 4.783,-0.269 7.652,-0.269c2.79,0 5.101,0.089 8.688,0.269c0.558,-0.269 0.717,-1.794 0.159,-2.242l-2.869,-0.269c-2.869,-0.269 -3.029,-1.346 -3.029,-7.803l0,-18.923c0,-2.421 0,-2.601 1.355,-2.601l8.529,0ZM732.696,174.823c0,-2.959 0.239,-4.305 0.957,-5.291c0.876,-1.076 3.347,-2.511 6.775,-2.511c7.173,0 10.76,7.264 10.76,14.439c0,9.327 -3.826,16.143 -10.362,16.143c-1.674,0 -4.145,-0.628 -5.739,-1.973c-1.594,-1.435 -2.391,-2.511 -2.391,-5.381l0,-15.426ZM768.661,174.823c0,-2.959 0.239,-4.305 0.956,-5.291c0.877,-1.076 3.348,-2.511 6.775,-2.511c7.174,0 10.761,7.264 10.761,14.439c0,9.327 -3.826,16.143 -10.362,16.143c-1.674,0 -4.145,-0.628 -5.739,-1.973c-1.594,-1.435 -2.391,-2.511 -2.391,-5.381l0,-15.426ZM663.457,146.483c0,-3.408 0,-3.587 2.391,-3.587l4.862,0c3.348,0 5.978,0 7.732,0.538c3.985,1.166 4.942,4.484 5.579,8.52c0.558,0.538 1.674,0.269 1.913,-0.269c-0.159,-3.408 -0.239,-7.713 -0.239,-11.838c-1.036,0.269 -5.659,0.269 -10.76,0.269l-14.666,0c-3.188,0 -5.898,-0.09 -9.246,-0.269c-0.478,0.269 -0.637,1.883 -0.159,2.242l1.275,0.179c4.623,0.628 4.783,1.884 4.783,11.3l0,32.286c0,9.417 -0.16,10.583 -4.783,11.211l-1.992,0.269c-0.479,0.538 -0.319,1.973 0.159,2.242c3.746,-0.18 6.456,-0.269 9.963,-0.269c3.188,0 5.898,0.089 10.601,0.269c0.478,-0.269 0.638,-1.884 0.159,-2.242l-2.71,-0.269c-4.702,-0.449 -4.862,-1.794 -4.862,-11.211l0,-12.466c0,-2.331 0.239,-2.421 2.631,-2.421l5.42,0c3.028,0 5.021,0.09 6.137,0.448c1.514,0.538 2.152,1.794 2.55,3.408l0.797,3.498c0.558,0.538 1.754,0.538 2.073,0c0,-2.063 -0.319,-5.471 -0.319,-8.699c0,-3.319 0.319,-6.906 0.319,-9.058c-0.319,-0.538 -1.674,-0.538 -2.073,0l-0.717,3.587c-0.478,2.332 -1.116,2.78 -1.993,3.139c-0.956,0.359 -3.507,0.538 -6.774,0.538l-5.42,0c-2.392,0 -2.631,0 -2.631,-2.421l0,-18.924l0,0ZM726.798,212.131c0,6.458 -0.08,7.355 -3.029,7.803l-1.674,0.269c-0.557,0.448 -0.398,1.973 0.16,2.242c2.232,-0.179 4.623,-0.269 7.492,-0.269c2.79,0 5.101,0.09 8.927,0.269c0.558,-0.269 0.717,-1.794 0.16,-2.242l-3.109,-0.448c-2.869,-0.449 -3.029,-1.256 -3.029,-7.624l0,-9.416c0,-1.884 0.399,-2.332 1.116,-2.511c0.717,0.179 2.949,0.358 4.384,0.358c11.318,0 19.448,-8.968 19.448,-21.434c0,-9.058 -5.181,-16.412 -13.231,-16.412c-5.101,0 -10.123,3.677 -11.159,4.215c-0.558,0 -0.717,-0.538 -0.717,-1.166c0,-1.166 0.159,-2.511 0.319,-4.125c-0.16,-0.449 -0.479,-0.628 -0.957,-0.628c-2.072,1.704 -5.818,3.856 -7.891,4.843c-0.398,0.269 -0.398,1.256 -0.079,1.614l0.717,0.538c2.152,1.615 2.152,2.063 2.152,5.561l0,38.563ZM762.763,212.131c0,6.458 -0.08,7.355 -3.029,7.803l-1.674,0.269c-0.558,0.448 -0.398,1.973 0.16,2.242c2.231,-0.179 4.623,-0.269 7.492,-0.269c2.79,0 5.101,0.09 8.927,0.269c0.558,-0.269 0.717,-1.794 0.159,-2.242l-3.108,-0.448c-2.87,-0.449 -3.029,-1.256 -3.029,-7.624l0,-9.416c0,-1.884 0.399,-2.332 1.116,-2.511c0.717,0.179 2.949,0.358 4.384,0.358c11.318,0 19.448,-8.968 19.448,-21.434c0,-9.058 -5.181,-16.412 -13.231,-16.412c-5.102,0 -10.123,3.677 -11.159,4.215c-0.558,0 -0.717,-0.538 -0.717,-1.166c0,-1.166 0.159,-2.511 0.318,-4.125c-0.159,-0.449 -0.478,-0.628 -0.956,-0.628c-2.072,1.704 -5.819,3.856 -7.891,4.843c-0.398,0.269 -0.398,1.256 -0.08,1.614l0.718,0.538c2.152,1.615 2.152,2.063 2.152,5.561l0,38.563ZM713.298,143.344c-2.391,0 -4.304,1.884 -4.304,4.843c0,2.422 1.594,4.485 4.065,4.485c2.232,0 4.225,-1.435 4.225,-4.664c0,-2.511 -1.594,-4.664 -3.986,-4.664l0,0ZM847.006,137.621c-13.182,6.695 -27.384,10.607 -40.899,11.914c-0.106,0.832 -0.184,1.675 -0.255,2.527c9.98,-1.025 20.427,-3.713 30.78,-8.282c3.136,-1.385 1.713,-1.004 6.348,-3.411c4.635,-2.406 5.233,-3.341 4.026,-2.748l0,0ZM767.186,86.495c-11.311,0.186 -21.914,8.322 -24.527,20.699c-1.499,7.103 0.501,16.186 5.028,23.583c-12.121,-3.858 -22.407,-11.764 -24.757,-14.038l-0.408,-0.178c2.519,2.438 12.754,11.143 26.186,15.619c1.286,1.821 2.71,3.596 4.364,5.207c10.312,10.037 26.923,15.587 45.761,15.109c0.155,-0.848 0.35,-1.689 0.562,-2.527c-19.054,0.629 -36.089,-4.091 -45.966,-13.705c-1.216,-1.184 -2.309,-2.467 -3.318,-3.777c3.787,0.825 8.9,1.093 13.042,0.638c5.925,-0.652 10.301,-1.659 14.318,-4.109c4.018,-2.451 7.765,-6.216 10.235,-11.46c2.346,-4.981 2.916,-11.048 0.893,-16.819c-2.023,-5.771 -7.311,-11.123 -13.961,-13.17c-1.718,-0.528 -3.448,-0.859 -5.181,-0.995c-0.758,-0.059 -1.517,-0.089 -2.271,-0.076l0,-0.001l0,0ZM833.595,135.192c-2.87,1.704 -6.609,3.034 -8.601,3.752c-0.399,0.269 -0.399,1.543 0,1.812l0.791,0.536c1.467,0.99 2.055,1.586 2.297,3.113c2.048,-0.62 4.093,-1.3 6.125,-2.041c0.054,-2.533 0.129,-4.943 0.179,-6.636c-0.16,-0.359 -0.473,-0.536 -0.791,-0.536l0,0ZM767.084,90.4c0.708,0.007 1.405,0.021 2.118,0.077c1.63,0.128 3.26,0.422 4.875,0.919c6.169,1.899 10.412,6.509 12.021,12.021c1.653,5.664 1.203,9.459 -0.332,13.654c-1.918,5.243 -5.3,8.4 -9.06,10.694c-3.761,2.293 -8.384,3.521 -14.191,4.16c-4.51,0.496 -9.126,0.581 -13.22,-0.485c-5.041,-7.433 -6.709,-16.824 -5.207,-23.94c2.475,-11.725 12.369,-17.198 22.996,-17.1ZM705.461,83.203c1.229,0.145 2.279,0.944 3.302,1.656c1.542,0.325 1.659,2.42 0.878,3.506c-0.601,1.281 -1.134,2.63 -1.522,3.978c-0.07,1.341 -0.934,2.17 -1.16,3.436c-0.247,1.275 -1.048,2.238 -1.2,3.484c-0.353,0.968 -1.217,2.105 -0.916,2.87c1.881,1.408 3.906,2.581 5.772,4.052c0.898,0.929 1.884,1.428 2.423,-0.061c0.872,-1.151 0.847,-1.015 1.791,-2.101c0.528,-1.678 2.047,-1.041 3.019,-0.155c0.857,1.292 0.181,1.588 -0.015,2.955c-0.514,1.341 -0.974,2.732 -1.536,4.046c-0.415,1.63 -1.154,3.103 -1.654,4.703c-0.476,1.688 -0.73,1.532 -1.226,3.209c-1.482,0.524 -3.845,-0.831 -2.794,-2.676c0.04,-1.933 -0.04,-2.638 0.119,-4.56c0.483,-1.903 -1.931,-2.138 -2.946,-3.12c-1.568,-0.999 -3.124,-2.027 -4.658,-3.093c-0.677,1 -0.772,1.946 -1.248,3.029c-0.649,1.19 -1.06,2.6 -1.513,3.929c-0.944,1.683 -1.386,3.689 -2.226,5.427c-0.81,1.303 -0.729,3.681 -2.341,4.073c-1.394,-0.458 -2.859,-1.173 -4.031,-2.213c-1.356,-1.733 0.125,-3.974 0.364,-5.858c0.431,-1.539 0.719,-3.144 1.195,-4.678c0.36,-1.627 0.916,-3.182 1.325,-4.785c-0.042,-1.147 1.561,-2.882 0.241,-3.471c-1.269,-0.783 -2.39,-1.467 -3.699,-2.294c-0.971,-0.768 -2.094,-2.149 -1.731,-3.558c0.684,-1.104 1.969,-0.996 3.02,-0.548c1.311,0.269 2.348,1.321 3.539,1.989c0.698,0.348 1.253,1.352 1.582,-0.001c0.683,-1.381 1.449,-2.601 2.073,-3.985c0.668,-1.122 1.186,-2.11 1.814,-3.305c0.582,-1.279 1.401,-2.355 1.982,-3.608c0.405,-1.053 1.158,-2.074 1.977,-2.271l0,-0.001l0,0ZM904.089,97.274c0.179,-0.008 0.359,0.009 0.498,0.057c0.277,0.098 0.065,0.205 -0.479,0.23c-0.545,0.025 -0.766,-0.069 -0.498,-0.191c0.133,-0.062 0.299,-0.088 0.479,-0.096ZM892.615,94.592c-0.553,0.021 -1.466,0.378 -2.797,1.073c-1.123,0.586 -2.176,1.053 -2.337,1.034c-0.16,-0.018 -0.682,0.826 -1.168,1.877c-0.736,1.593 -0.813,2.097 -0.422,3.008c0.354,0.82 0.343,1.43 -0.019,2.413c-0.265,0.72 -0.449,1.79 -0.421,2.394c0.055,1.211 -0.918,2.813 -1.839,3.008c-1.519,0.321 -2.33,1.343 -2.26,2.873c0.038,0.84 0.515,2.267 0.172,2.912c-0.595,1.12 -0.409,2.034 -0.211,2.72c0.308,1.06 0.497,0.576 0.211,1.494c-0.242,0.777 -0.218,1.326 0.096,1.781c0.286,0.415 0.326,1.027 0.134,1.628c-0.168,0.527 -0.151,1.538 0.019,2.26c0.426,1.811 2.344,2.824 5.727,3.008c1.562,0.085 2.725,0.326 2.835,0.613c0.103,0.268 -0.101,0.52 -0.459,0.536c-0.358,0.016 -1.608,0.992 -2.759,2.184c-2.046,2.119 -2.067,2.204 -1.743,3.85c0.207,1.052 0.178,1.693 -0.076,1.705c-0.224,0.01 -0.483,0.801 -1.456,0.996c-1.834,0.366 -2.632,0.36 -2.471,1.455c-0.945,0.137 -1.827,-0.204 -2.433,-1.015c-0.376,-0.504 -1.183,-1.607 -1.8,-2.452c-0.618,-0.845 -2.429,-2.821 -4.023,-4.386c-2.153,-2.115 -5.875,-6.011 -6.225,-7.03c-0.129,-0.291 -0.256,-0.578 -0.345,-0.862c0.005,-0.653 -0.5,-1.115 -0.555,-1.743c0.039,-0.619 -0.082,-1.235 -0.058,-1.858c-0.165,-0.683 -0.13,-1.453 -0.421,-2.05c-0.187,-0.46 -0.158,-0.986 -0.249,-1.474c-0.043,-0.392 -0.116,-0.781 -0.307,-1.131c-0.1,-0.629 -0.336,-1.158 -0.172,-1.819c-0.096,-0.346 -0.181,-0.652 -0.575,-0.671c-0.42,0.069 -0.749,0.386 -0.881,0.786c-0.198,0.423 -0.375,0.847 -0.383,1.321c-0.053,0.366 -0.079,0.733 0.019,1.092c-0.158,-0.048 -0.286,-0.45 -0.46,-0.632c-0.355,-0.632 -0.937,-1.082 -1.532,-1.475c-0.578,-0.384 -1.098,-0.883 -1.781,-1.073c-0.326,-0.131 -0.712,-0.187 -1.016,0.02c-0.156,0.253 -0.195,0.556 -0.134,0.842c0.442,0.56 0.959,1.047 1.571,1.418c0.675,0.352 0.8,0.983 1.168,1.551c0.296,0.183 0.462,0.559 -0.076,0.518c-0.41,-0.215 -0.641,-0.665 -1.073,-0.862c-0.493,-0.331 -1.049,-0.575 -1.628,-0.709c-0.744,0.099 -1.475,-0.347 -2.203,-0.134c-0.523,0.068 -1.109,0.181 -1.475,0.594c-0.129,0.339 -0.098,0.823 0.288,0.976c0.311,0.23 0.678,0.262 1.053,0.288c0.54,0.155 1.082,0.154 1.628,0.268c0.325,-0.075 1.093,0.326 0.92,0.555c-0.3,-0.299 -0.71,-0.441 -1.13,-0.44c-0.411,0 -0.847,-0.167 -1.245,-0.058c-0.387,0.135 -0.664,0.403 -1.016,0.594c-0.149,0.242 -0.284,0.494 -0.21,0.786c0.077,0.26 0.362,0.447 0.632,0.478c0.563,0.034 1.153,-0.016 1.685,0.249c0.373,0.481 1.394,0.355 1.456,0.997c-0.458,0.418 -0.876,-0.696 -1.475,-0.594c-0.561,-0.199 -1.115,-0.656 -1.743,-0.441c-0.295,0.008 -0.354,0.341 -0.46,0.556c0.059,0.289 -0.027,0.664 0.288,0.823c0.372,0.423 0.97,0.503 1.379,0.881c0.467,0.41 1.142,0.676 1.436,1.245c0.295,0.755 0.607,1.499 1.073,2.165c0.326,0.511 0.718,0.973 1.169,1.379c0.394,0.429 0.827,0.796 1.302,1.13c0.212,0.09 0.493,0.396 0.785,0.594c0.943,1.593 2.217,4.933 2.682,6.091c0.555,1.381 2.232,3.298 2.969,4.272c1.186,1.566 2.583,3.048 3.046,4.405c2.254,3.49 3.271,4.509 3.946,4.942c0.663,0.426 2.057,2.057 6.167,1.609c0.599,-0.059 1.993,-0.191 1.993,-0.191c0,0 0.418,0.114 0.708,0.364c1.294,1.112 3.221,-0.028 4.176,-1.13c0.327,-0.015 0.603,0.153 0.613,0.364c-0.99,0.642 -0.575,1.474 -0.077,2.547c-0.79,0.377 -1.72,0.821 -2.068,0.939c-1.025,0.347 -2.739,1.475 -2.739,1.475c-0.408,0.619 -0.612,0.496 -0.364,1.934c0,0 -0.931,0.405 -0.633,1.609c0.135,0.544 0.92,1.207 0.92,1.207c-0.194,0.214 0.685,1.76 1.494,1.686c0.306,0.845 1.291,1.452 2.184,1.264c0.734,0.178 -0.17,0.876 2.605,1.149c0.925,-0.549 0.88,-0.896 0.747,-1.647l1.436,-0.575c0.213,0.725 0.37,1.606 0.613,2.701c0.503,2.259 3.732,7.605 5.574,9.233c1.584,1.399 1.829,1.793 1.514,2.452c-0.607,1.268 -0.3,3.909 0.747,6.359l0.977,2.279l-1.035,0.901c-0.95,0.831 -1.034,1.18 -1.072,4.482c-0.04,3.373 0.013,3.655 0.976,4.712c0.774,0.849 1.124,1.785 1.399,3.793c0.291,2.131 0.675,3.087 1.915,4.865c0.851,1.219 2.071,2.727 2.72,3.352c0.649,0.625 2.084,2.969 3.199,5.21c1.115,2.241 2.762,5.027 3.659,6.187c6.441,8.335 6.808,9.08 5.727,11.665c-1.053,2.519 -2.031,3.644 -3.199,3.697c-2.511,0.114 -4.929,2.055 -4.846,3.889c0.082,1.802 0.732,2.512 3.448,3.754c12.946,-0.601 9.819,-1.846 13.964,-4.903c-0.014,-0.294 0.323,-0.556 0.747,-0.575c1.802,-0.082 5.257,-3.465 6.053,-5.919c0.437,-1.349 -1.279,-4.233 -3.008,-5.038c-0.747,-0.347 -2.281,-1.285 -3.39,-2.088c-2.269,-1.641 -2.916,-2.86 -4.827,-9.079c-1.727,-5.621 -3.231,-8.323 -6.187,-11.091c-3.177,-2.974 -3.296,-3.527 -0.613,-3.294c2.213,0.192 3.184,-0.339 3.122,-1.705c-0.02,-0.452 0.356,-1.297 0.843,-1.877c1.126,-1.34 1.807,-4.384 1.36,-6.053c-0.266,-0.994 -0.218,-1.221 0.211,-1.073c0.302,0.104 1.377,0.461 2.375,0.805c0.998,0.343 2.566,1.084 3.486,1.647c0.92,0.563 2.196,1.124 2.835,1.245c0.639,0.121 1.578,0.577 2.107,1.015c0.822,0.682 1.411,0.77 4.003,0.594c1.901,-0.129 3.986,-0.574 5.574,-1.188c1.395,-0.538 3.586,-1.177 4.885,-1.417c1.299,-0.24 3.604,-0.743 5.114,-1.13c1.511,-0.387 3.8,-0.96 5.095,-1.283c1.295,-0.324 2.974,-0.802 3.736,-1.054c1.346,-0.445 3.006,-0.028 5.612,1.437c0.336,0.188 1.073,0.508 1.628,0.708c1.177,0.426 3.708,3.38 4.482,5.23c0.296,0.705 1.126,2.059 1.858,2.988c1.065,1.348 1.665,1.724 2.912,1.877c1.309,0.16 1.766,0.008 2.873,-0.919c1.994,-1.67 2.182,-2.384 1.782,-6.475c-0.443,-4.518 -1.422,-6.499 -4.751,-9.539c-1.386,-1.266 -2.802,-3.003 -3.352,-4.137c-1.258,-2.594 -3.696,-4.621 -5.478,-4.54c-1.018,0.046 -1.702,0.442 -2.854,1.666c-2.268,2.41 -3.541,2.761 -8.926,2.452c-5.423,-0.311 -8.27,0.078 -12.087,1.59c-4.011,1.589 -4.553,1.694 -5.249,1.169c-0.843,-0.638 -0.814,-1.828 0.058,-3.046c1.049,-1.466 1.152,-3.247 1.072,-5c-0.074,-1.641 -0.941,-2.579 -3.256,-3.62c-1.465,-0.659 -1.898,-1.594 -3.045,-0.038c-0.57,0.773 -0.245,0.148 -1.111,-0.402c-0.512,-0.325 -1.322,-1.217 -1.82,-1.954c-1.112,-1.644 -4.369,-4.818 -6.015,-5.881c-0.669,-0.432 -1.796,-0.76 -2.509,-0.728c-0.981,0.045 -1.636,-0.279 -2.663,-1.302c-0.746,-0.744 -1.277,-1.57 -1.187,-1.839c0.089,-0.269 -0.317,-1.081 -0.9,-1.8c-0.583,-0.72 -1.071,-1.692 -1.092,-2.165c-0.022,-0.473 -0.479,-1.752 -0.996,-2.854c-0.518,-1.102 -0.868,-2.081 -0.786,-2.165c0.082,-0.084 0.928,-0.638 1.878,-1.225c3.495,-2.165 3.681,-4.976 0.536,-8.045c-0.858,-0.837 -2.589,-2.638 -3.85,-3.985c-3.393,-3.621 -6.517,-6.314 -8.084,-6.972c-0.762,-0.32 -1.388,-0.745 -1.398,-0.958c-0.01,-0.212 0.396,-0.151 0.9,0.134c1.176,0.665 3.777,0.994 4.042,0.517c0.112,-0.201 1.27,-0.343 2.567,-0.306c2.116,0.06 2.366,-0.019 2.567,-0.766c0.171,-0.64 0.457,-0.781 1.187,-0.632c0.523,0.106 1.179,0.035 1.456,-0.154c0.276,-0.188 0.988,-0.303 1.59,-0.268c1.27,0.076 1.481,-0.908 0.325,-1.513c-0.582,-0.305 -0.379,-0.074 0.69,-0.46c0.513,-0.185 1.705,-0.599 1.551,-1.187c-0.123,-0.473 -0.519,-0.556 -0.976,-0.345c-0.373,0.172 -0.657,0.11 -1.38,0.249c-1.552,0.299 -2.742,-0.643 -2.605,-2.05c0.096,-0.974 0.327,-1.077 1.207,-0.574c0.316,0.18 0.805,0.24 1.092,0.115c0.932,-0.407 0.5,-1.322 -0.862,-1.82c-1.236,-0.452 -3.052,-2.332 -2.663,-2.758c1.073,1.021 2.179,1.769 3.659,2.183c1.236,0.691 5.073,-0.629 0.575,-1.609c-2.533,-1.233 -3.644,-2.945 -3.755,-5.88c-0.061,-1.624 -0.276,-2.289 -1.015,-3.008c-0.789,-0.767 -0.823,-0.913 -0.268,-0.938c0.365,-0.017 0.598,-0.207 0.651,-0.422c0.152,-0.617 -0.468,-2.047 -1.685,-2.796c-0.92,-0.566 -1.79,-1.558 -5.057,-1.36c-0.449,-0.33 -1.533,-0.743 -0.671,-1.379c0.972,-0.201 1.004,-0.74 0.058,-1.245c-0.575,-0.307 -0.458,-0.391 0.651,-0.364c1,0.024 1.399,-0.141 1.475,-0.613c0.105,-0.649 -0.624,-1.087 -2.126,-1.264c-0.439,-0.052 -1.241,-0.16 -1.762,-0.249c-0.522,-0.09 -1.726,-0.512 -3.391,-0.498c-2.866,0.023 -3.712,0.455 -5.516,1.8c-1.049,0.781 -1.705,1.17 -1.475,0.862c0.229,-0.307 0.447,-1.004 0.498,-1.552c0.087,-0.944 0.018,-0.996 -1.571,-0.804c-1.313,0.158 -1.683,0.065 -1.705,-0.421c-0.017,-0.384 -0.24,-0.572 -0.67,-0.556l0,0Z" style="fill:#133e59;"/></g><path d="M1434.28,375.114l-1268.56,0c192.961,-89.284 407.846,-139.114 634.278,-139.114c226.432,0 441.317,49.83 634.278,139.114l0.004,0Z" style="fill:#133e59;"/><path d="M1363.31,375l-1126.62,0c173.748,-71.364 363.969,-110.722 563.311,-110.722c199.342,0 389.563,39.358 563.311,110.722l-0.002,0Z" style="fill:#11374f;"/><path d="M1285.22,375l-970.44,0c151.81,-53.661 315.131,-82.863 485.22,-82.863c170.089,0 333.41,29.202 485.22,82.863Z" style="fill:#0f3248;"/><path d="M1195.62,375l-791.242,0c125.66,-36.155 258.396,-55.526 395.621,-55.526c137.225,0 269.961,19.371 395.621,55.526Z" style="fill:#0e2d41;"/><path d="M1083.48,375l-566.958,0c91.568,-18.818 186.378,-28.702 283.479,-28.702c97.101,0 191.911,9.884 283.479,28.702Z" style="fill:#0c2839;"/></g></svg>